<?xml version="1.0" encoding="UTF-8"?>
<!-- Created with Inkscape (http://www.inkscape.org/) -->
<svg width="200" height="84" version="1.1" viewBox="0 0 200 84" xmlns="http://www.w3.org/2000/svg">
 <defs>
  <filter id="filter1970" x="-.12735" y="-.48513" width="1.2284" height="1.8304" color-interpolation-filters="sRGB">
   <feTurbulence baseFrequency="0.12 0.02" numOctaves="10" seed="10" type="fractalNoise"/>
   <feColorMatrix result="result5" values="1 0 0 0 0 0 1 0 0 0 0 0 1 0 0 0 0 0 0.7 0 "/>
   <feComposite in="SourceGraphic" in2="result5" operator="out"/>
   <feMorphology operator="dilate" radius="1.3" result="result3"/>
   <feTurbulence baseFrequency="0.08 0.05" numOctaves="8" result="result91" seed="25"/>
   <feDisplacementMap in="result3" in2="result91" result="result4" scale="5" xChannelSelector="R" yChannelSelector="G"/>
   <feSpecularLighting lighting-color="#ffffff" in="result4" result="result1" specularExponent="35" surfaceScale="2">
    <feDistantLight azimuth="235" elevation="75"/>
   </feSpecularLighting>
   <feComposite in="result1" in2="result4" operator="in" result="result2"/>
   <feComposite in="result4" in2="result2" k2="1" k3="1" operator="arithmetic" result="result4"/>
   <feBlend in2="result4" mode="multiply" result="fbSourceGraphic"/>
   <feColorMatrix in="fbSourceGraphic" result="fbSourceGraphicAlpha" values="0 0 0 -1 0 0 0 0 -1 0 0 0 0 -1 0 0 0 0 1 0"/>
   <feMorphology in="fbSourceGraphic" operator="dilate" radius="2.4" result="result1"/>
   <feTurbulence baseFrequency="0.09 0.028"/>
   <feColorMatrix result="result2" values="2 0 0 0 0 0 2 0 0 0 0 0 0 0 0 0 0 0 1 0"/>
   <feDisplacementMap in="result1" in2="result2" result="result4" scale="10.31941" xChannelSelector="R" yChannelSelector="G"/>
   <feFlood flood-color="rgb(255,159,54)" result="result3"/>
   <feMorphology in="result4" radius="3.8" result="result7"/>
   <feGaussianBlur in="result7" result="result7" stdDeviation="2.4"/>
   <feComposite in="result3" in2="result4" operator="in" result="result5"/>
   <feComposite in2="result7" operator="out"/>
   <feOffset dx="-4.5" dy="-7" result="result6"/>
   <feGaussianBlur result="result7" stdDeviation="4.8"/>
   <feComposite in="fbSourceGraphic" in2="result6" result="result92"/>
   <feComposite in2="result7"/>
  </filter>
 </defs>
 <g transform="matrix(.97611 0 0 .97153 -19.451 -2.7232)" fill="#800000" fill-rule="evenodd" filter="url(#filter1970)" stop-color="#000000" stroke-width="1.0269" aria-label="NPC">
  <path d="m58.102 76.564h-19.832v-11.566h4.2373v-25.181h-4.2373v-11.566h22.888l17.574 25.25v-13.684h-3.9247v-11.566h19.485v11.566h-4.2025v37.371h-15.907l-20.353-29.209v17.019h4.272z"/>
  <path d="m123.19 38.845v9.065h3.6468q3.8205 0 5.5571-0.90302 1.6671-0.90302 1.6671-3.5079 0-1.7019-0.90303-2.8827-0.86829-1.1461-2.327-1.4587-1.3893-0.31259-4.7235-0.31259zm4.8624 37.719h-28.237v-11.566h4.6888v-25.181h-4.6888v-11.566h29.626q10.211 0 14.935 1.9797 4.7235 2.0144 6.9463 5.4876t2.2228 7.6062q0 5.1056-2.6396 8.4745-2.6396 3.4037-6.9811 4.9319-4.272 1.4935-13.198 1.4935h-7.5368v6.7727h4.8624z"/>
  <path d="m196.75 55.273 12.538 4.4109q-1.5977 7.7452-7.3284 12.677-5.8002 4.9666-15.977 4.9666-13.893 0-20.561-7.2589-6.7032-7.2242-6.7032-17.644 0-10.489 6.5643-17.817t17.053-7.3284q8.5093 0 13.858 4.2025v-3.2301h11.6v17.644h-12.052q-0.93776-3.2995-3.1606-5.2098-2.2228-1.8755-5.0708-1.8755-7.8494 0-7.8494 13.511 0 13.545 8.1272 13.545 7.12 0 8.9608-10.593z"/>
 </g>
</svg>
