<?xml version="1.0" encoding="UTF-8"?>
<svg width="24" height="24" version="1.1" viewBox="0 0 48 48" xmlns="http://www.w3.org/2000/svg">
  <path d="m24 0a24 24 0 0 0-24 24 24 24 0 0 0 24 24 24 24 0 0 0 24-24 24 24 0 0 0-24-24zm0 2.4277c4.0459 0 8.0916 0.84033 11 2.5195 2.9084 1.6792 3.9707 3.5707 3.9707 5.1973 0 1.6266-1.0623 3.5161-3.9707 5.1953-5.8168 3.3584-16.183 3.3584-22 0-2.9084-1.6792-3.9707-3.5687-3.9707-5.1953 0-1.6266 1.0623-3.5181 3.9707-5.1973 2.9084-1.6792 6.9541-2.5195 11-2.5195zm0 6.1738c-0.80916 0-1.6175 0.16807-2.1992 0.50391-0.58167 0.33584-0.79492 0.71374-0.79492 1.0391 0 0.32532 0.21325 0.70322 0.79492 1.0391 1.1634 0.67167 3.2351 0.67167 4.3984 0 0.58168-0.33584 0.79492-0.71375 0.79492-1.0391 0-0.32532-0.21325-0.70323-0.79492-1.0391-0.58168-0.33584-1.3901-0.50391-2.1992-0.50391zm-17.58 8.8281c0.24708-0.011612 0.50496-0.005943 0.77539 0.019531 1.0817 0.1019 2.3505 0.51587 3.8047 1.3555 5.8152 3.3574 10.995 12.331 10.998 19.047v0.00586 0.007812c-0.0022 3.3521-1.1064 5.2168-2.5137 6.0293-1.4086 0.81326-3.576 0.83739-6.4844-0.8418-5.8168-3.3584-11-12.336-11-19.053 1e-5 -3.3584 1.105-5.2238 2.5137-6.0371 0.52824-0.30498 1.165-0.49837 1.9062-0.5332zm35.16 0c0.7407 0.034832 1.3761 0.22822 1.9043 0.5332 1.4086 0.81329 2.5156 2.6787 2.5156 6.0371 2e-5 6.7168-5.1832 15.694-11 19.053-2.9084 1.6792-5.0777 1.6551-6.4863 0.8418-1.4072-0.81248-2.5115-2.6772-2.5137-6.0293v-0.007812-0.00586c0.0029-6.7145 5.1827-15.685 10.996-19.045 0.0012-7.06e-4 0.002706-0.001155 0.003906-0.001953 0.0021-0.0012 0.003659-0.002707 0.005859-0.003907 1.4514-0.83701 2.7188-1.2498 3.7988-1.3516 0.27043-0.025474 0.52849-0.031143 0.77539-0.019531zm-0.048828 3.0195c-0.23288 0.005781-0.5146 0.086488-0.8418 0.27539-0.58168 0.33583-1.1306 0.95159-1.5352 1.6523-0.40458 0.70075-0.66407 1.4865-0.66406 2.1582 5e-6 0.67166 0.22217 1.0444 0.50391 1.207 0.28173 0.16266 0.71519 0.16786 1.2969-0.16797 1.1634-0.67166 2.1992-2.4672 2.1992-3.8105-7e-6 -0.67166-0.22022-1.0444-0.50195-1.207-0.12326-0.071164-0.2759-0.11192-0.45703-0.10742zm-32.895 3.8906c-0.1482 0.007023-0.27521 0.046424-0.38086 0.10742-0.28173 0.16266-0.50195 0.53537-0.50195 1.207-7.9e-6 1.3433 1.0359 3.1389 2.1992 3.8105 0.58168 0.33583 1.0151 0.33063 1.2969 0.16797 0.28173-0.16266 0.5039-0.53537 0.50391-1.207 6e-6 -0.67166-0.25948-1.4555-0.66406-2.1562-0.40458-0.70075-0.95543-1.3185-1.5371-1.6543-0.36355-0.20989-0.66901-0.2871-0.91602-0.27539zm28.402 3.8867c-0.23288 0.005782-0.51265 0.088442-0.83984 0.27734-0.58168 0.33583-1.1325 0.95159-1.5371 1.6523-0.40458 0.70075-0.66407 1.4865-0.66406 2.1582 5e-6 0.67166 0.22217 1.0444 0.50391 1.207 0.28173 0.16266 0.71519 0.16786 1.2969-0.16797 1.1634-0.67166 2.1992-2.4672 2.1992-3.8105-7e-6 -0.67166-0.22022-1.0444-0.50195-1.207-0.12326-0.071164-0.2759-0.11387-0.45703-0.10938zm-23.91 3.8926c-0.1482 0.007022-0.27521 0.046424-0.38086 0.10742-0.28173 0.16266-0.5039 0.53537-0.50391 1.207-9e-6 1.3433 1.0378 3.1389 2.2012 3.8105 0.58168 0.33583 1.0151 0.33063 1.2969 0.16797s0.50195-0.53537 0.50195-1.207c6e-6 -0.67166-0.25753-1.4574-0.66211-2.1582-0.40458-0.70075-0.95543-1.3165-1.5371-1.6523-0.36355-0.20989-0.66901-0.2871-0.91602-0.27539zm19.42 3.8867c-0.23288 0.005781-0.5146 0.086489-0.8418 0.27539-0.58168 0.33583-1.1306 0.95354-1.5352 1.6543s-0.66407 1.4846-0.66406 2.1562c5e-6 0.67166 0.22217 1.0463 0.50391 1.209 0.28173 0.16266 0.71519 0.16786 1.2969-0.16797 1.1634-0.67166 2.1992-2.4672 2.1992-3.8105-6e-6 -0.67166-0.22022-1.0463-0.50195-1.209-0.12326-0.071163-0.2759-0.11192-0.45703-0.10742z" color="#000000" fill="#f00" stop-color="#000000" stroke-width=".2" style="font-variation-settings:normal"/>
</svg>
